%TF.GenerationSoftware,KiCad,Pcbnew,9.0.4*%
%TF.CreationDate,2025-09-15T19:22:17-07:00*%
%TF.ProjectId,solarboard,736f6c61-7262-46f6-9172-642e6b696361,rev?*%
%TF.SameCoordinates,Original*%
%TF.FileFunction,Legend,Top*%
%TF.FilePolarity,Positive*%
%FSLAX46Y46*%
G04 Gerber Fmt 4.6, Leading zero omitted, Abs format (unit mm)*
G04 Created by KiCad (PCBNEW 9.0.4) date 2025-09-15 19:22:17*
%MOMM*%
%LPD*%
G01*
G04 APERTURE LIST*
%ADD10C,0.150000*%
%ADD11C,0.120000*%
%ADD12C,0.100000*%
G04 APERTURE END LIST*
D10*
X111444819Y-7051904D02*
X112254342Y-7051904D01*
X112254342Y-7051904D02*
X112349580Y-7004285D01*
X112349580Y-7004285D02*
X112397200Y-6956666D01*
X112397200Y-6956666D02*
X112444819Y-6861428D01*
X112444819Y-6861428D02*
X112444819Y-6670952D01*
X112444819Y-6670952D02*
X112397200Y-6575714D01*
X112397200Y-6575714D02*
X112349580Y-6528095D01*
X112349580Y-6528095D02*
X112254342Y-6480476D01*
X112254342Y-6480476D02*
X111444819Y-6480476D01*
X111778152Y-5575714D02*
X112444819Y-5575714D01*
X111397200Y-5813809D02*
X112111485Y-6051904D01*
X112111485Y-6051904D02*
X112111485Y-5432857D01*
X44344819Y-7051904D02*
X45154342Y-7051904D01*
X45154342Y-7051904D02*
X45249580Y-7004285D01*
X45249580Y-7004285D02*
X45297200Y-6956666D01*
X45297200Y-6956666D02*
X45344819Y-6861428D01*
X45344819Y-6861428D02*
X45344819Y-6670952D01*
X45344819Y-6670952D02*
X45297200Y-6575714D01*
X45297200Y-6575714D02*
X45249580Y-6528095D01*
X45249580Y-6528095D02*
X45154342Y-6480476D01*
X45154342Y-6480476D02*
X44344819Y-6480476D01*
X45344819Y-5480476D02*
X45344819Y-6051904D01*
X45344819Y-5766190D02*
X44344819Y-5766190D01*
X44344819Y-5766190D02*
X44487676Y-5861428D01*
X44487676Y-5861428D02*
X44582914Y-5956666D01*
X44582914Y-5956666D02*
X44630533Y-6051904D01*
X178544819Y-74151904D02*
X179354342Y-74151904D01*
X179354342Y-74151904D02*
X179449580Y-74104285D01*
X179449580Y-74104285D02*
X179497200Y-74056666D01*
X179497200Y-74056666D02*
X179544819Y-73961428D01*
X179544819Y-73961428D02*
X179544819Y-73770952D01*
X179544819Y-73770952D02*
X179497200Y-73675714D01*
X179497200Y-73675714D02*
X179449580Y-73628095D01*
X179449580Y-73628095D02*
X179354342Y-73580476D01*
X179354342Y-73580476D02*
X178544819Y-73580476D01*
X178973390Y-72961428D02*
X178925771Y-73056666D01*
X178925771Y-73056666D02*
X178878152Y-73104285D01*
X178878152Y-73104285D02*
X178782914Y-73151904D01*
X178782914Y-73151904D02*
X178735295Y-73151904D01*
X178735295Y-73151904D02*
X178640057Y-73104285D01*
X178640057Y-73104285D02*
X178592438Y-73056666D01*
X178592438Y-73056666D02*
X178544819Y-72961428D01*
X178544819Y-72961428D02*
X178544819Y-72770952D01*
X178544819Y-72770952D02*
X178592438Y-72675714D01*
X178592438Y-72675714D02*
X178640057Y-72628095D01*
X178640057Y-72628095D02*
X178735295Y-72580476D01*
X178735295Y-72580476D02*
X178782914Y-72580476D01*
X178782914Y-72580476D02*
X178878152Y-72628095D01*
X178878152Y-72628095D02*
X178925771Y-72675714D01*
X178925771Y-72675714D02*
X178973390Y-72770952D01*
X178973390Y-72770952D02*
X178973390Y-72961428D01*
X178973390Y-72961428D02*
X179021009Y-73056666D01*
X179021009Y-73056666D02*
X179068628Y-73104285D01*
X179068628Y-73104285D02*
X179163866Y-73151904D01*
X179163866Y-73151904D02*
X179354342Y-73151904D01*
X179354342Y-73151904D02*
X179449580Y-73104285D01*
X179449580Y-73104285D02*
X179497200Y-73056666D01*
X179497200Y-73056666D02*
X179544819Y-72961428D01*
X179544819Y-72961428D02*
X179544819Y-72770952D01*
X179544819Y-72770952D02*
X179497200Y-72675714D01*
X179497200Y-72675714D02*
X179449580Y-72628095D01*
X179449580Y-72628095D02*
X179354342Y-72580476D01*
X179354342Y-72580476D02*
X179163866Y-72580476D01*
X179163866Y-72580476D02*
X179068628Y-72628095D01*
X179068628Y-72628095D02*
X179021009Y-72675714D01*
X179021009Y-72675714D02*
X178973390Y-72770952D01*
X178544819Y-141251904D02*
X179354342Y-141251904D01*
X179354342Y-141251904D02*
X179449580Y-141204285D01*
X179449580Y-141204285D02*
X179497200Y-141156666D01*
X179497200Y-141156666D02*
X179544819Y-141061428D01*
X179544819Y-141061428D02*
X179544819Y-140870952D01*
X179544819Y-140870952D02*
X179497200Y-140775714D01*
X179497200Y-140775714D02*
X179449580Y-140728095D01*
X179449580Y-140728095D02*
X179354342Y-140680476D01*
X179354342Y-140680476D02*
X178544819Y-140680476D01*
X179544819Y-140156666D02*
X179544819Y-139966190D01*
X179544819Y-139966190D02*
X179497200Y-139870952D01*
X179497200Y-139870952D02*
X179449580Y-139823333D01*
X179449580Y-139823333D02*
X179306723Y-139728095D01*
X179306723Y-139728095D02*
X179116247Y-139680476D01*
X179116247Y-139680476D02*
X178735295Y-139680476D01*
X178735295Y-139680476D02*
X178640057Y-139728095D01*
X178640057Y-139728095D02*
X178592438Y-139775714D01*
X178592438Y-139775714D02*
X178544819Y-139870952D01*
X178544819Y-139870952D02*
X178544819Y-140061428D01*
X178544819Y-140061428D02*
X178592438Y-140156666D01*
X178592438Y-140156666D02*
X178640057Y-140204285D01*
X178640057Y-140204285D02*
X178735295Y-140251904D01*
X178735295Y-140251904D02*
X178973390Y-140251904D01*
X178973390Y-140251904D02*
X179068628Y-140204285D01*
X179068628Y-140204285D02*
X179116247Y-140156666D01*
X179116247Y-140156666D02*
X179163866Y-140061428D01*
X179163866Y-140061428D02*
X179163866Y-139870952D01*
X179163866Y-139870952D02*
X179116247Y-139775714D01*
X179116247Y-139775714D02*
X179068628Y-139728095D01*
X179068628Y-139728095D02*
X178973390Y-139680476D01*
X44344819Y-74151904D02*
X45154342Y-74151904D01*
X45154342Y-74151904D02*
X45249580Y-74104285D01*
X45249580Y-74104285D02*
X45297200Y-74056666D01*
X45297200Y-74056666D02*
X45344819Y-73961428D01*
X45344819Y-73961428D02*
X45344819Y-73770952D01*
X45344819Y-73770952D02*
X45297200Y-73675714D01*
X45297200Y-73675714D02*
X45249580Y-73628095D01*
X45249580Y-73628095D02*
X45154342Y-73580476D01*
X45154342Y-73580476D02*
X44344819Y-73580476D01*
X44440057Y-73151904D02*
X44392438Y-73104285D01*
X44392438Y-73104285D02*
X44344819Y-73009047D01*
X44344819Y-73009047D02*
X44344819Y-72770952D01*
X44344819Y-72770952D02*
X44392438Y-72675714D01*
X44392438Y-72675714D02*
X44440057Y-72628095D01*
X44440057Y-72628095D02*
X44535295Y-72580476D01*
X44535295Y-72580476D02*
X44630533Y-72580476D01*
X44630533Y-72580476D02*
X44773390Y-72628095D01*
X44773390Y-72628095D02*
X45344819Y-73199523D01*
X45344819Y-73199523D02*
X45344819Y-72580476D01*
X107954819Y-177608333D02*
X108669104Y-177608333D01*
X108669104Y-177608333D02*
X108811961Y-177655952D01*
X108811961Y-177655952D02*
X108907200Y-177751190D01*
X108907200Y-177751190D02*
X108954819Y-177894047D01*
X108954819Y-177894047D02*
X108954819Y-177989285D01*
X108954819Y-176608333D02*
X108954819Y-177179761D01*
X108954819Y-176894047D02*
X107954819Y-176894047D01*
X107954819Y-176894047D02*
X108097676Y-176989285D01*
X108097676Y-176989285D02*
X108192914Y-177084523D01*
X108192914Y-177084523D02*
X108240533Y-177179761D01*
X178544819Y-7051904D02*
X179354342Y-7051904D01*
X179354342Y-7051904D02*
X179449580Y-7004285D01*
X179449580Y-7004285D02*
X179497200Y-6956666D01*
X179497200Y-6956666D02*
X179544819Y-6861428D01*
X179544819Y-6861428D02*
X179544819Y-6670952D01*
X179544819Y-6670952D02*
X179497200Y-6575714D01*
X179497200Y-6575714D02*
X179449580Y-6528095D01*
X179449580Y-6528095D02*
X179354342Y-6480476D01*
X179354342Y-6480476D02*
X178544819Y-6480476D01*
X178544819Y-6099523D02*
X178544819Y-5432857D01*
X178544819Y-5432857D02*
X179544819Y-5861428D01*
X111444819Y-74151904D02*
X112254342Y-74151904D01*
X112254342Y-74151904D02*
X112349580Y-74104285D01*
X112349580Y-74104285D02*
X112397200Y-74056666D01*
X112397200Y-74056666D02*
X112444819Y-73961428D01*
X112444819Y-73961428D02*
X112444819Y-73770952D01*
X112444819Y-73770952D02*
X112397200Y-73675714D01*
X112397200Y-73675714D02*
X112349580Y-73628095D01*
X112349580Y-73628095D02*
X112254342Y-73580476D01*
X112254342Y-73580476D02*
X111444819Y-73580476D01*
X111444819Y-72628095D02*
X111444819Y-73104285D01*
X111444819Y-73104285D02*
X111921009Y-73151904D01*
X111921009Y-73151904D02*
X111873390Y-73104285D01*
X111873390Y-73104285D02*
X111825771Y-73009047D01*
X111825771Y-73009047D02*
X111825771Y-72770952D01*
X111825771Y-72770952D02*
X111873390Y-72675714D01*
X111873390Y-72675714D02*
X111921009Y-72628095D01*
X111921009Y-72628095D02*
X112016247Y-72580476D01*
X112016247Y-72580476D02*
X112254342Y-72580476D01*
X112254342Y-72580476D02*
X112349580Y-72628095D01*
X112349580Y-72628095D02*
X112397200Y-72675714D01*
X112397200Y-72675714D02*
X112444819Y-72770952D01*
X112444819Y-72770952D02*
X112444819Y-73009047D01*
X112444819Y-73009047D02*
X112397200Y-73104285D01*
X112397200Y-73104285D02*
X112349580Y-73151904D01*
X44344819Y-141251904D02*
X45154342Y-141251904D01*
X45154342Y-141251904D02*
X45249580Y-141204285D01*
X45249580Y-141204285D02*
X45297200Y-141156666D01*
X45297200Y-141156666D02*
X45344819Y-141061428D01*
X45344819Y-141061428D02*
X45344819Y-140870952D01*
X45344819Y-140870952D02*
X45297200Y-140775714D01*
X45297200Y-140775714D02*
X45249580Y-140728095D01*
X45249580Y-140728095D02*
X45154342Y-140680476D01*
X45154342Y-140680476D02*
X44344819Y-140680476D01*
X44344819Y-140299523D02*
X44344819Y-139680476D01*
X44344819Y-139680476D02*
X44725771Y-140013809D01*
X44725771Y-140013809D02*
X44725771Y-139870952D01*
X44725771Y-139870952D02*
X44773390Y-139775714D01*
X44773390Y-139775714D02*
X44821009Y-139728095D01*
X44821009Y-139728095D02*
X44916247Y-139680476D01*
X44916247Y-139680476D02*
X45154342Y-139680476D01*
X45154342Y-139680476D02*
X45249580Y-139728095D01*
X45249580Y-139728095D02*
X45297200Y-139775714D01*
X45297200Y-139775714D02*
X45344819Y-139870952D01*
X45344819Y-139870952D02*
X45344819Y-140156666D01*
X45344819Y-140156666D02*
X45297200Y-140251904D01*
X45297200Y-140251904D02*
X45249580Y-140299523D01*
X111444819Y-141251904D02*
X112254342Y-141251904D01*
X112254342Y-141251904D02*
X112349580Y-141204285D01*
X112349580Y-141204285D02*
X112397200Y-141156666D01*
X112397200Y-141156666D02*
X112444819Y-141061428D01*
X112444819Y-141061428D02*
X112444819Y-140870952D01*
X112444819Y-140870952D02*
X112397200Y-140775714D01*
X112397200Y-140775714D02*
X112349580Y-140728095D01*
X112349580Y-140728095D02*
X112254342Y-140680476D01*
X112254342Y-140680476D02*
X111444819Y-140680476D01*
X111444819Y-139775714D02*
X111444819Y-139966190D01*
X111444819Y-139966190D02*
X111492438Y-140061428D01*
X111492438Y-140061428D02*
X111540057Y-140109047D01*
X111540057Y-140109047D02*
X111682914Y-140204285D01*
X111682914Y-140204285D02*
X111873390Y-140251904D01*
X111873390Y-140251904D02*
X112254342Y-140251904D01*
X112254342Y-140251904D02*
X112349580Y-140204285D01*
X112349580Y-140204285D02*
X112397200Y-140156666D01*
X112397200Y-140156666D02*
X112444819Y-140061428D01*
X112444819Y-140061428D02*
X112444819Y-139870952D01*
X112444819Y-139870952D02*
X112397200Y-139775714D01*
X112397200Y-139775714D02*
X112349580Y-139728095D01*
X112349580Y-139728095D02*
X112254342Y-139680476D01*
X112254342Y-139680476D02*
X112016247Y-139680476D01*
X112016247Y-139680476D02*
X111921009Y-139728095D01*
X111921009Y-139728095D02*
X111873390Y-139775714D01*
X111873390Y-139775714D02*
X111825771Y-139870952D01*
X111825771Y-139870952D02*
X111825771Y-140061428D01*
X111825771Y-140061428D02*
X111873390Y-140156666D01*
X111873390Y-140156666D02*
X111921009Y-140204285D01*
X111921009Y-140204285D02*
X112016247Y-140251904D01*
D11*
%TO.C,U4*%
X110985000Y-4695000D02*
X110985000Y-5430000D01*
X118985000Y-8695000D02*
X118985000Y-9430000D01*
D12*
X74100000Y7100000D02*
X140100000Y7100000D01*
X140100000Y-58900000D01*
X74100000Y-58900000D01*
X74100000Y7100000D01*
D11*
%TO.C,U1*%
X43885000Y-4695000D02*
X43885000Y-5430000D01*
X51885000Y-8695000D02*
X51885000Y-9430000D01*
D12*
X7000000Y7100000D02*
X73000000Y7100000D01*
X73000000Y-58900000D01*
X7000000Y-58900000D01*
X7000000Y7100000D01*
D11*
%TO.C,U8*%
X178085000Y-71795000D02*
X178085000Y-72530000D01*
X186085000Y-75795000D02*
X186085000Y-76530000D01*
D12*
X141200000Y-60000000D02*
X207200000Y-60000000D01*
X207200000Y-126000000D01*
X141200000Y-126000000D01*
X141200000Y-60000000D01*
D11*
%TO.C,U9*%
X178085000Y-138895000D02*
X178085000Y-139630000D01*
X186085000Y-142895000D02*
X186085000Y-143630000D01*
D12*
X141200000Y-127100000D02*
X207200000Y-127100000D01*
X207200000Y-193100000D01*
X141200000Y-193100000D01*
X141200000Y-127100000D01*
D11*
%TO.C,U2*%
X43885000Y-71795000D02*
X43885000Y-72530000D01*
X51885000Y-75795000D02*
X51885000Y-76530000D01*
D12*
X7000000Y-60000000D02*
X73000000Y-60000000D01*
X73000000Y-126000000D01*
X7000000Y-126000000D01*
X7000000Y-60000000D01*
D11*
%TO.C,J1*%
X105390000Y-177260000D02*
X105390000Y-176310030D01*
X105740000Y-179260000D02*
X105740000Y-177260000D01*
X106260000Y-177260000D02*
X106260000Y-179260000D01*
X106260000Y-179260000D02*
X105740000Y-179260000D01*
X106500000Y-176635000D02*
X106500000Y-177260000D01*
X107000000Y-175165000D02*
X107735000Y-175165000D01*
X107610000Y-176635000D02*
X107610000Y-177260000D01*
X107610000Y-177260000D02*
X105390000Y-177260000D01*
X107735000Y-175165000D02*
X107735000Y-175900000D01*
X107260000Y-177260000D02*
X106740000Y-177260000D01*
X106740000Y-179260000D01*
X107260000Y-179260000D01*
X107260000Y-177260000D01*
G36*
X107260000Y-177260000D02*
G01*
X106740000Y-177260000D01*
X106740000Y-179260000D01*
X107260000Y-179260000D01*
X107260000Y-177260000D01*
G37*
%TO.C,U7*%
X178085000Y-4695000D02*
X178085000Y-5430000D01*
X186085000Y-8695000D02*
X186085000Y-9430000D01*
D12*
X141200000Y7100000D02*
X207200000Y7100000D01*
X207200000Y-58900000D01*
X141200000Y-58900000D01*
X141200000Y7100000D01*
D11*
%TO.C,U5*%
X110985000Y-71795000D02*
X110985000Y-72530000D01*
X118985000Y-75795000D02*
X118985000Y-76530000D01*
D12*
X74100000Y-60000000D02*
X140100000Y-60000000D01*
X140100000Y-126000000D01*
X74100000Y-126000000D01*
X74100000Y-60000000D01*
D11*
%TO.C,U3*%
X43885000Y-138895000D02*
X43885000Y-139630000D01*
X51885000Y-142895000D02*
X51885000Y-143630000D01*
D12*
X7000000Y-127100000D02*
X73000000Y-127100000D01*
X73000000Y-193100000D01*
X7000000Y-193100000D01*
X7000000Y-127100000D01*
D11*
%TO.C,U6*%
X110985000Y-138895000D02*
X110985000Y-139630000D01*
X118985000Y-142895000D02*
X118985000Y-143630000D01*
D12*
X74100000Y-127100000D02*
X140100000Y-127100000D01*
X140100000Y-193100000D01*
X74100000Y-193100000D01*
X74100000Y-127100000D01*
%TD*%
M02*
